<?xml version="1.0" encoding="UTF-8"?>
<svg xmlns="http://www.w3.org/2000/svg" xmlns:xlink="http://www.w3.org/1999/xlink" width="20px" height="20px" viewBox="0 0 20 20" version="1.1">
<g id="surface1">
<path style=" stroke:none;fill-rule:nonzero;fill:rgb(0%,0%,0%);fill-opacity:1;" d="M 1.601562 5.625 C 1.734375 5.65625 1.859375 5.652344 2.242188 5.359375 C 2.410156 5.230469 2.664062 5.011719 2.894531 4.703125 L 2.996094 4.570312 C 3.863281 3.414062 5.894531 0.714844 8.828125 0.859375 C 11.246094 1.035156 12.960938 2.863281 13.789062 6.144531 C 13.816406 6.257812 13.832031 6.324219 13.851562 6.378906 C 13.976562 6.914062 14.1875 7.582031 14.492188 7.800781 C 14.570312 7.855469 14.65625 7.882812 14.742188 7.882812 C 14.875 7.882812 15.007812 7.820312 15.089844 7.707031 C 15.222656 7.519531 15.1875 7.265625 15.011719 7.125 C 14.929688 7.015625 14.769531 6.558594 14.675781 6.148438 C 14.671875 6.125 14.664062 6.101562 14.652344 6.078125 C 14.644531 6.050781 14.628906 5.992188 14.617188 5.9375 C 14.484375 5.414062 14.136719 4.035156 13.296875 2.734375 C 12.207031 1.058594 10.722656 0.140625 8.886719 0.0078125 C 8.882812 0.0078125 8.878906 0.0078125 8.875 0.0078125 C 5.488281 -0.164062 3.261719 2.792969 2.3125 4.054688 L 2.210938 4.1875 C 1.953125 4.53125 1.644531 4.746094 1.539062 4.808594 C 1.503906 4.824219 1.46875 4.839844 1.4375 4.867188 C 1.304688 4.964844 1.238281 5.136719 1.273438 5.300781 C 1.3125 5.464844 1.4375 5.589844 1.601562 5.625 Z M 1.601562 5.625 "/>
<path style=" stroke:none;fill-rule:nonzero;fill:rgb(0%,0%,0%);fill-opacity:1;" d="M 1.792969 10.011719 C 3.199219 9.628906 4.503906 8.847656 4.5625 8.8125 C 6.402344 7.6875 8.070312 5.914062 8.082031 5.894531 C 8.773438 5.105469 9.792969 4.351562 10.585938 4.59375 C 11.054688 4.738281 11.378906 4.992188 11.550781 5.351562 C 11.757812 5.78125 11.742188 6.363281 11.507812 6.949219 C 11.480469 7.007812 11.453125 7.070312 11.421875 7.136719 C 11.722656 7.152344 12.015625 7.195312 12.300781 7.261719 C 12.621094 6.457031 12.628906 5.625 12.320312 4.980469 C 12.046875 4.40625 11.53125 3.988281 10.835938 3.777344 C 9.816406 3.464844 8.578125 4.03125 7.441406 5.332031 C 7.425781 5.347656 5.8125 7.046875 4.117188 8.082031 C 4.105469 8.089844 2.863281 8.835938 1.566406 9.1875 C 1.339844 9.25 1.203125 9.484375 1.265625 9.714844 C 1.328125 9.941406 1.5625 10.074219 1.792969 10.011719 Z M 1.792969 10.011719 "/>
<path style=" stroke:none;fill-rule:nonzero;fill:rgb(0%,0%,0%);fill-opacity:1;" d="M 6.269531 12.019531 C 6.269531 11.847656 6.277344 11.683594 6.292969 11.515625 C 5.09375 12.246094 3.53125 13.144531 2.308594 13.664062 C 2.09375 13.757812 1.992188 14.007812 2.085938 14.226562 C 2.15625 14.390625 2.3125 14.484375 2.476562 14.484375 C 2.535156 14.484375 2.589844 14.472656 2.644531 14.453125 C 3.761719 13.972656 5.140625 13.199219 6.292969 12.515625 C 6.277344 12.351562 6.269531 12.1875 6.269531 12.019531 Z M 6.269531 12.019531 "/>
<path style=" stroke:none;fill-rule:nonzero;fill:rgb(0%,0%,0%);fill-opacity:1;" d="M 9.304688 1.828125 C 7.757812 1.988281 6.4375 2.953125 5.417969 4.074219 C 5.226562 4.289062 5.050781 4.519531 4.863281 4.738281 C 4.621094 5.023438 4.351562 5.292969 4.070312 5.546875 C 3.78125 5.804688 3.550781 5.992188 3.210938 6.1875 C 2.851562 6.394531 2.484375 6.601562 2.109375 6.785156 C 1.980469 6.847656 1.871094 6.886719 1.726562 6.929688 C 1.503906 6.996094 1.363281 7.226562 1.429688 7.457031 C 1.488281 7.675781 1.730469 7.820312 1.953125 7.753906 C 2.390625 7.625 2.785156 7.398438 3.179688 7.175781 C 3.511719 6.984375 3.84375 6.8125 4.148438 6.582031 C 4.746094 6.128906 5.261719 5.597656 5.734375 5.019531 C 5.925781 4.785156 6.128906 4.558594 6.34375 4.34375 C 6.457031 4.226562 6.578125 4.113281 6.703125 4.003906 C 6.765625 3.945312 6.832031 3.890625 6.898438 3.835938 C 6.929688 3.808594 6.964844 3.78125 7 3.753906 C 7.007812 3.746094 7.074219 3.691406 7.089844 3.679688 C 7.386719 3.453125 7.703125 3.25 8.039062 3.078125 C 8.355469 2.914062 8.667969 2.800781 9.054688 2.722656 C 9.179688 2.695312 9.207031 2.691406 9.304688 2.683594 C 9.535156 2.660156 9.730469 2.507812 9.730469 2.257812 C 9.730469 2.042969 9.535156 1.804688 9.304688 1.828125 Z M 9.304688 1.828125 "/>
<path style=" stroke:none;fill-rule:nonzero;fill:rgb(0%,0%,0%);fill-opacity:1;" d="M 2.09375 12.253906 C 2.664062 12.0625 4.664062 11.320312 6.742188 9.921875 C 7.324219 8.695312 8.40625 7.75 9.722656 7.34375 C 9.980469 7.050781 10.226562 6.742188 10.457031 6.417969 C 10.59375 6.226562 10.550781 5.957031 10.355469 5.820312 C 10.164062 5.683594 9.898438 5.730469 9.761719 5.921875 C 7.246094 9.449219 2.703125 11.144531 1.816406 11.449219 C 1.800781 11.453125 1.789062 11.457031 1.78125 11.460938 C 1.5625 11.542969 1.453125 11.789062 1.535156 12.011719 C 1.601562 12.179688 1.761719 12.285156 1.933594 12.285156 C 1.984375 12.285156 2.03125 12.277344 2.082031 12.261719 Z M 2.09375 12.253906 "/>
<path style=" stroke:none;fill-rule:nonzero;fill:rgb(0%,0%,0%);fill-opacity:1;" d="M 6.957031 14.515625 C 6.808594 14.273438 6.683594 14.011719 6.582031 13.742188 C 6.441406 13.832031 6.296875 13.929688 6.144531 14.027344 C 5.078125 14.730469 3.871094 15.527344 3.34375 15.671875 C 3.117188 15.730469 2.980469 15.964844 3.042969 16.195312 C 3.09375 16.382812 3.265625 16.511719 3.453125 16.511719 C 3.492188 16.511719 3.527344 16.503906 3.566406 16.496094 C 4.226562 16.316406 5.386719 15.550781 6.613281 14.742188 C 6.726562 14.667969 6.839844 14.59375 6.957031 14.515625 Z M 6.957031 14.515625 "/>
<path style=" stroke:none;fill-rule:nonzero;fill:rgb(0%,0%,0%);fill-opacity:1;" d="M 12.648438 16.890625 C 12.5625 16.859375 12.464844 16.816406 12.355469 16.757812 C 11.964844 16.859375 11.5625 16.910156 11.160156 16.910156 C 11.070312 16.910156 10.984375 16.90625 10.898438 16.902344 C 11.449219 17.242188 11.964844 17.550781 12.359375 17.695312 C 12.582031 17.773438 12.828125 17.660156 12.90625 17.4375 C 12.988281 17.214844 12.871094 16.972656 12.648438 16.890625 Z M 12.648438 16.890625 "/>
<path style=" stroke:none;fill-rule:nonzero;fill:rgb(0%,0%,0%);fill-opacity:1;" d="M 7.765625 15.539062 C 7.167969 15.910156 6.359375 16.484375 5.3125 17.246094 C 5.085938 17.410156 4.886719 17.554688 4.75 17.652344 C 4.558594 17.789062 4.511719 18.054688 4.648438 18.246094 C 4.734375 18.367188 4.863281 18.429688 5 18.429688 C 5.082031 18.429688 5.171875 18.402344 5.246094 18.351562 C 5.386719 18.25 5.585938 18.105469 5.816406 17.9375 C 6.394531 17.515625 7.71875 16.546875 8.476562 16.105469 C 8.222656 15.9375 7.984375 15.75 7.765625 15.539062 Z M 7.765625 15.539062 "/>
<path style=" stroke:none;fill-rule:nonzero;fill:rgb(0%,0%,0%);fill-opacity:1;" d="M 11.207031 19.015625 C 10.96875 18.859375 10.746094 18.699219 10.53125 18.546875 C 9.832031 18.046875 9.226562 17.617188 8.5625 17.730469 C 7.816406 17.859375 6.625 19.058594 6.394531 19.296875 C 6.230469 19.464844 6.234375 19.734375 6.40625 19.898438 C 6.488281 19.980469 6.59375 20.019531 6.703125 20.019531 C 6.8125 20.019531 6.925781 19.976562 7.007812 19.890625 C 7.582031 19.300781 8.394531 18.628906 8.707031 18.574219 C 9.019531 18.519531 9.492188 18.855469 10.035156 19.242188 C 10.246094 19.394531 10.484375 19.5625 10.742188 19.730469 C 10.9375 19.859375 11.203125 19.804688 11.332031 19.605469 C 11.460938 19.40625 11.40625 19.144531 11.207031 19.015625 Z M 11.207031 19.015625 "/>
<path style=" stroke:none;fill-rule:nonzero;fill:rgb(0%,0%,0%);fill-opacity:1;" d="M 18.523438 18.398438 L 14.691406 14.566406 C 15.269531 13.839844 15.613281 12.917969 15.613281 11.921875 C 15.613281 9.570312 13.703125 7.660156 11.355469 7.660156 C 9.007812 7.660156 7.097656 9.570312 7.097656 11.921875 C 7.097656 14.269531 9.007812 16.179688 11.355469 16.179688 C 12.101562 16.179688 12.804688 15.984375 13.414062 15.648438 L 17.347656 19.578125 C 17.507812 19.742188 17.722656 19.820312 17.9375 19.820312 C 18.148438 19.820312 18.363281 19.742188 18.523438 19.578125 C 18.851562 19.253906 18.851562 18.726562 18.523438 18.398438 Z M 9.25 14.132812 C 9.238281 14.167969 9.21875 14.1875 9.1875 14.1875 C 9.183594 14.1875 9.175781 14.1875 9.171875 14.183594 C 9.160156 14.171875 9.148438 14.164062 9.136719 14.152344 C 9.132812 14.144531 9.128906 14.140625 9.128906 14.132812 C 9.117188 14.097656 9.109375 14.03125 9.109375 13.933594 C 9.109375 13.835938 9.117188 13.769531 9.128906 13.730469 C 9.140625 13.695312 9.160156 13.675781 9.1875 13.675781 C 9.21875 13.675781 9.238281 13.695312 9.25 13.734375 C 9.261719 13.773438 9.265625 13.839844 9.265625 13.933594 C 9.265625 14.027344 9.261719 14.09375 9.25 14.132812 Z M 14.082031 13.492188 C 13.984375 13.496094 13.914062 13.53125 13.867188 13.597656 C 13.820312 13.667969 13.792969 13.769531 13.792969 13.910156 C 13.730469 13.984375 13.664062 14.058594 13.597656 14.125 L 13.597656 13.503906 L 13.390625 13.503906 L 13.097656 13.742188 L 13.214844 13.890625 L 13.3125 13.8125 C 13.335938 13.792969 13.351562 13.773438 13.367188 13.757812 C 13.363281 13.800781 13.363281 13.851562 13.363281 13.90625 L 13.363281 14.34375 C 12.816406 14.796875 12.117188 15.070312 11.355469 15.070312 C 10.589844 15.070312 9.886719 14.792969 9.339844 14.335938 C 9.371094 14.320312 9.398438 14.296875 9.421875 14.265625 C 9.472656 14.195312 9.496094 14.085938 9.496094 13.933594 C 9.496094 13.785156 9.472656 13.675781 9.417969 13.601562 C 9.367188 13.53125 9.289062 13.492188 9.1875 13.492188 C 9.082031 13.492188 9.007812 13.527344 8.957031 13.597656 C 8.914062 13.660156 8.886719 13.746094 8.882812 13.863281 C 8.84375 13.8125 8.804688 13.761719 8.765625 13.710938 C 8.753906 13.667969 8.738281 13.632812 8.71875 13.601562 C 8.699219 13.578125 8.679688 13.558594 8.660156 13.542969 C 8.453125 13.199219 8.308594 12.816406 8.242188 12.40625 C 8.246094 12.410156 8.25 12.417969 8.253906 12.421875 C 8.308594 12.496094 8.382812 12.535156 8.488281 12.535156 C 8.589844 12.535156 8.667969 12.5 8.71875 12.429688 C 8.769531 12.359375 8.796875 12.246094 8.796875 12.097656 C 8.796875 11.949219 8.769531 11.839844 8.71875 11.765625 C 8.664062 11.691406 8.589844 11.65625 8.488281 11.65625 C 8.382812 11.65625 8.304688 11.691406 8.253906 11.761719 C 8.234375 11.789062 8.21875 11.820312 8.207031 11.855469 C 8.214844 11.445312 8.304688 11.054688 8.453125 10.695312 C 8.464844 10.695312 8.476562 10.695312 8.488281 10.695312 C 8.589844 10.695312 8.667969 10.660156 8.71875 10.589844 C 8.769531 10.519531 8.796875 10.410156 8.796875 10.257812 C 8.796875 10.203125 8.792969 10.152344 8.785156 10.105469 C 9.355469 9.300781 10.292969 8.773438 11.355469 8.773438 C 12.375 8.773438 13.285156 9.261719 13.863281 10.015625 L 13.796875 10.070312 L 13.917969 10.214844 L 13.972656 10.171875 C 14.003906 10.21875 14.035156 10.269531 14.066406 10.320312 L 14.066406 10.683594 L 14.25 10.683594 C 14.414062 11.0625 14.503906 11.480469 14.503906 11.917969 C 14.503906 12.492188 14.347656 13.03125 14.082031 13.492188 Z M 8.40625 12.097656 C 8.40625 12 8.414062 11.929688 8.425781 11.894531 C 8.4375 11.859375 8.457031 11.839844 8.488281 11.839844 C 8.515625 11.839844 8.535156 11.859375 8.546875 11.898438 C 8.558594 11.933594 8.566406 12 8.566406 12.097656 C 8.566406 12.191406 8.558594 12.257812 8.546875 12.292969 C 8.535156 12.332031 8.515625 12.351562 8.488281 12.351562 C 8.457031 12.351562 8.4375 12.332031 8.425781 12.296875 C 8.414062 12.257812 8.40625 12.191406 8.40625 12.097656 Z M 8.40625 12.097656 "/>
<path style=" stroke:none;fill-rule:nonzero;fill:rgb(0%,0%,0%);fill-opacity:1;" d="M 9.105469 10.136719 C 9.125 10.117188 9.144531 10.097656 9.15625 10.082031 C 9.15625 10.128906 9.152344 10.175781 9.152344 10.230469 L 9.152344 10.683594 L 9.386719 10.683594 L 9.386719 9.832031 L 9.179688 9.832031 L 8.886719 10.070312 L 9.007812 10.214844 Z M 9.105469 10.136719 "/>
<path style=" stroke:none;fill-rule:nonzero;fill:rgb(0%,0%,0%);fill-opacity:1;" d="M 9.890625 9.816406 C 9.785156 9.816406 9.707031 9.851562 9.65625 9.925781 C 9.605469 9.996094 9.582031 10.105469 9.582031 10.257812 C 9.582031 10.402344 9.605469 10.511719 9.660156 10.585938 C 9.710938 10.660156 9.789062 10.695312 9.890625 10.695312 C 9.996094 10.695312 10.070312 10.660156 10.121094 10.589844 C 10.171875 10.519531 10.199219 10.410156 10.199219 10.257812 C 10.199219 10.113281 10.171875 10.003906 10.121094 9.929688 C 10.070312 9.855469 9.992188 9.816406 9.890625 9.816406 Z M 9.949219 10.457031 C 9.9375 10.492188 9.917969 10.511719 9.890625 10.511719 C 9.863281 10.511719 9.839844 10.496094 9.828125 10.457031 C 9.816406 10.421875 9.8125 10.355469 9.8125 10.257812 C 9.8125 10.160156 9.816406 10.09375 9.828125 10.058594 C 9.839844 10.019531 9.863281 10.003906 9.890625 10.003906 C 9.917969 10.003906 9.9375 10.023438 9.949219 10.058594 C 9.964844 10.097656 9.96875 10.164062 9.96875 10.257812 C 9.96875 10.351562 9.964844 10.417969 9.949219 10.457031 Z M 9.949219 10.457031 "/>
<path style=" stroke:none;fill-rule:nonzero;fill:rgb(0%,0%,0%);fill-opacity:1;" d="M 10.507812 10.136719 C 10.527344 10.117188 10.546875 10.097656 10.5625 10.082031 C 10.558594 10.128906 10.558594 10.175781 10.558594 10.230469 L 10.558594 10.683594 L 10.792969 10.683594 L 10.792969 9.832031 L 10.582031 9.832031 L 10.289062 10.070312 L 10.410156 10.214844 Z M 10.507812 10.136719 "/>
<path style=" stroke:none;fill-rule:nonzero;fill:rgb(0%,0%,0%);fill-opacity:1;" d="M 11.292969 9.816406 C 11.1875 9.816406 11.109375 9.851562 11.0625 9.925781 C 11.011719 9.996094 10.984375 10.105469 10.984375 10.257812 C 10.984375 10.402344 11.011719 10.511719 11.0625 10.585938 C 11.113281 10.660156 11.191406 10.695312 11.292969 10.695312 C 11.398438 10.695312 11.476562 10.660156 11.527344 10.589844 C 11.578125 10.519531 11.601562 10.410156 11.601562 10.257812 C 11.601562 10.113281 11.574219 10.003906 11.523438 9.929688 C 11.472656 9.855469 11.394531 9.816406 11.292969 9.816406 Z M 11.355469 10.457031 C 11.34375 10.492188 11.320312 10.511719 11.292969 10.511719 C 11.265625 10.511719 11.246094 10.496094 11.234375 10.457031 C 11.21875 10.421875 11.214844 10.355469 11.214844 10.257812 C 11.214844 10.160156 11.21875 10.09375 11.234375 10.058594 C 11.246094 10.019531 11.265625 10.003906 11.292969 10.003906 C 11.320312 10.003906 11.34375 10.023438 11.355469 10.058594 C 11.367188 10.097656 11.371094 10.164062 11.371094 10.257812 C 11.371094 10.351562 11.367188 10.417969 11.355469 10.457031 Z M 11.355469 10.457031 "/>
<path style=" stroke:none;fill-rule:nonzero;fill:rgb(0%,0%,0%);fill-opacity:1;" d="M 11.996094 9.816406 C 11.890625 9.816406 11.8125 9.851562 11.761719 9.925781 C 11.710938 9.996094 11.6875 10.105469 11.6875 10.257812 C 11.6875 10.402344 11.710938 10.511719 11.765625 10.585938 C 11.816406 10.660156 11.894531 10.695312 11.996094 10.695312 C 12.097656 10.695312 12.175781 10.660156 12.226562 10.589844 C 12.277344 10.519531 12.304688 10.410156 12.304688 10.257812 C 12.304688 10.113281 12.277344 10.003906 12.226562 9.929688 C 12.171875 9.855469 12.097656 9.816406 11.996094 9.816406 Z M 12.054688 10.457031 C 12.042969 10.492188 12.023438 10.511719 11.996094 10.511719 C 11.964844 10.511719 11.945312 10.496094 11.933594 10.457031 C 11.921875 10.421875 11.917969 10.355469 11.917969 10.257812 C 11.917969 10.160156 11.921875 10.09375 11.933594 10.058594 C 11.945312 10.019531 11.964844 10.003906 11.996094 10.003906 C 12.023438 10.003906 12.042969 10.023438 12.054688 10.058594 C 12.066406 10.097656 12.074219 10.164062 12.074219 10.257812 C 12.074219 10.351562 12.066406 10.417969 12.054688 10.457031 Z M 12.054688 10.457031 "/>
<path style=" stroke:none;fill-rule:nonzero;fill:rgb(0%,0%,0%);fill-opacity:1;" d="M 12.613281 10.136719 C 12.632812 10.117188 12.652344 10.097656 12.664062 10.082031 C 12.664062 10.128906 12.664062 10.175781 12.664062 10.230469 L 12.664062 10.683594 L 12.898438 10.683594 L 12.898438 9.832031 L 12.6875 9.832031 L 12.394531 10.070312 L 12.515625 10.214844 Z M 12.613281 10.136719 "/>
<path style=" stroke:none;fill-rule:nonzero;fill:rgb(0%,0%,0%);fill-opacity:1;" d="M 13.097656 10.070312 L 13.214844 10.214844 L 13.3125 10.136719 C 13.335938 10.117188 13.351562 10.097656 13.367188 10.082031 C 13.363281 10.128906 13.363281 10.175781 13.363281 10.230469 L 13.363281 10.683594 L 13.597656 10.683594 L 13.597656 9.832031 L 13.390625 9.832031 Z M 13.097656 10.070312 "/>
<path style=" stroke:none;fill-rule:nonzero;fill:rgb(0%,0%,0%);fill-opacity:1;" d="M 9.1875 11.65625 C 9.082031 11.65625 9.007812 11.691406 8.957031 11.761719 C 8.90625 11.832031 8.878906 11.945312 8.878906 12.097656 C 8.878906 12.242188 8.90625 12.351562 8.957031 12.421875 C 9.007812 12.496094 9.085938 12.535156 9.1875 12.535156 C 9.292969 12.535156 9.371094 12.5 9.421875 12.429688 C 9.472656 12.359375 9.496094 12.246094 9.496094 12.097656 C 9.496094 11.949219 9.472656 11.839844 9.417969 11.765625 C 9.367188 11.691406 9.289062 11.65625 9.1875 11.65625 Z M 9.25 12.292969 C 9.238281 12.332031 9.21875 12.351562 9.1875 12.351562 C 9.160156 12.351562 9.140625 12.332031 9.128906 12.296875 C 9.117188 12.257812 9.109375 12.191406 9.109375 12.097656 C 9.109375 12 9.117188 11.929688 9.128906 11.894531 C 9.140625 11.859375 9.160156 11.839844 9.1875 11.839844 C 9.21875 11.839844 9.238281 11.859375 9.25 11.898438 C 9.261719 11.933594 9.265625 12 9.265625 12.097656 C 9.265625 12.191406 9.261719 12.257812 9.25 12.292969 Z M 9.25 12.292969 "/>
<path style=" stroke:none;fill-rule:nonzero;fill:rgb(0%,0%,0%);fill-opacity:1;" d="M 9.855469 12.523438 L 10.089844 12.523438 L 10.089844 11.667969 L 9.882812 11.667969 L 9.589844 11.90625 L 9.707031 12.054688 L 9.804688 11.972656 C 9.828125 11.953125 9.84375 11.9375 9.859375 11.917969 C 9.855469 11.964844 9.855469 12.015625 9.855469 12.070312 Z M 9.855469 12.523438 "/>
<path style=" stroke:none;fill-rule:nonzero;fill:rgb(0%,0%,0%);fill-opacity:1;" d="M 10.589844 11.65625 C 10.488281 11.65625 10.410156 11.691406 10.359375 11.761719 C 10.308594 11.832031 10.28125 11.945312 10.28125 12.097656 C 10.28125 12.242188 10.308594 12.351562 10.359375 12.421875 C 10.414062 12.496094 10.488281 12.535156 10.589844 12.535156 C 10.695312 12.535156 10.773438 12.5 10.824219 12.429688 C 10.875 12.359375 10.898438 12.246094 10.898438 12.097656 C 10.898438 11.949219 10.875 11.839844 10.824219 11.765625 C 10.769531 11.691406 10.695312 11.65625 10.589844 11.65625 Z M 10.652344 12.292969 C 10.640625 12.332031 10.621094 12.351562 10.589844 12.351562 C 10.5625 12.351562 10.542969 12.332031 10.53125 12.296875 C 10.519531 12.257812 10.511719 12.191406 10.511719 12.097656 C 10.511719 12 10.519531 11.929688 10.53125 11.894531 C 10.542969 11.859375 10.5625 11.839844 10.589844 11.839844 C 10.621094 11.839844 10.640625 11.859375 10.652344 11.898438 C 10.664062 11.933594 10.671875 12 10.671875 12.097656 C 10.671875 12.191406 10.664062 12.257812 10.652344 12.292969 Z M 10.652344 12.292969 "/>
<path style=" stroke:none;fill-rule:nonzero;fill:rgb(0%,0%,0%);fill-opacity:1;" d="M 10.992188 11.90625 L 11.113281 12.054688 L 11.207031 11.972656 C 11.230469 11.953125 11.246094 11.9375 11.261719 11.917969 C 11.261719 11.964844 11.257812 12.015625 11.257812 12.070312 L 11.257812 12.523438 L 11.492188 12.523438 L 11.492188 11.667969 L 11.285156 11.667969 Z M 10.992188 11.90625 "/>
<path style=" stroke:none;fill-rule:nonzero;fill:rgb(0%,0%,0%);fill-opacity:1;" d="M 11.996094 11.65625 C 11.890625 11.65625 11.8125 11.691406 11.761719 11.761719 C 11.710938 11.832031 11.6875 11.945312 11.6875 12.097656 C 11.6875 12.242188 11.710938 12.351562 11.765625 12.421875 C 11.816406 12.496094 11.894531 12.535156 11.996094 12.535156 C 12.097656 12.535156 12.175781 12.5 12.226562 12.429688 C 12.277344 12.359375 12.304688 12.246094 12.304688 12.097656 C 12.304688 11.949219 12.277344 11.839844 12.226562 11.765625 C 12.171875 11.691406 12.097656 11.65625 11.996094 11.65625 Z M 12.054688 12.292969 C 12.042969 12.332031 12.023438 12.351562 11.996094 12.351562 C 11.964844 12.351562 11.945312 12.332031 11.933594 12.296875 C 11.921875 12.257812 11.917969 12.191406 11.917969 12.097656 C 11.917969 12 11.921875 11.929688 11.933594 11.894531 C 11.945312 11.859375 11.964844 11.839844 11.996094 11.839844 C 12.023438 11.839844 12.042969 11.859375 12.054688 11.898438 C 12.066406 11.933594 12.074219 12 12.074219 12.097656 C 12.074219 12.191406 12.066406 12.257812 12.054688 12.292969 Z M 12.054688 12.292969 "/>
<path style=" stroke:none;fill-rule:nonzero;fill:rgb(0%,0%,0%);fill-opacity:1;" d="M 12.695312 11.65625 C 12.59375 11.65625 12.515625 11.691406 12.464844 11.761719 C 12.414062 11.832031 12.386719 11.945312 12.386719 12.097656 C 12.386719 12.242188 12.414062 12.351562 12.464844 12.421875 C 12.515625 12.496094 12.59375 12.535156 12.695312 12.535156 C 12.800781 12.535156 12.878906 12.5 12.929688 12.429688 C 12.980469 12.359375 13.003906 12.246094 13.003906 12.097656 C 13.003906 11.949219 12.980469 11.839844 12.925781 11.765625 C 12.875 11.691406 12.796875 11.65625 12.695312 11.65625 Z M 12.757812 12.292969 C 12.746094 12.332031 12.726562 12.351562 12.695312 12.351562 C 12.667969 12.351562 12.648438 12.332031 12.636719 12.296875 C 12.625 12.257812 12.617188 12.191406 12.617188 12.097656 C 12.617188 12 12.625 11.929688 12.636719 11.894531 C 12.648438 11.859375 12.667969 11.839844 12.695312 11.839844 C 12.726562 11.839844 12.746094 11.859375 12.757812 11.898438 C 12.769531 11.933594 12.777344 12 12.777344 12.097656 C 12.777344 12.191406 12.769531 12.257812 12.757812 12.292969 Z M 12.757812 12.292969 "/>
<path style=" stroke:none;fill-rule:nonzero;fill:rgb(0%,0%,0%);fill-opacity:1;" d="M 13.097656 11.90625 L 13.214844 12.054688 L 13.3125 11.972656 C 13.335938 11.953125 13.351562 11.9375 13.367188 11.917969 C 13.363281 11.964844 13.363281 12.015625 13.363281 12.070312 L 13.363281 12.523438 L 13.597656 12.523438 L 13.597656 11.667969 L 13.390625 11.667969 Z M 13.097656 11.90625 "/>
<path style=" stroke:none;fill-rule:nonzero;fill:rgb(0%,0%,0%);fill-opacity:1;" d="M 14.101562 11.65625 C 13.996094 11.65625 13.917969 11.691406 13.867188 11.761719 C 13.816406 11.832031 13.792969 11.945312 13.792969 12.097656 C 13.792969 12.242188 13.816406 12.351562 13.867188 12.421875 C 13.921875 12.496094 13.996094 12.535156 14.101562 12.535156 C 14.203125 12.535156 14.28125 12.5 14.332031 12.429688 C 14.382812 12.359375 14.410156 12.246094 14.410156 12.097656 C 14.410156 11.949219 14.382812 11.839844 14.332031 11.765625 C 14.277344 11.691406 14.203125 11.65625 14.101562 11.65625 Z M 14.160156 12.292969 C 14.148438 12.332031 14.128906 12.351562 14.101562 12.351562 C 14.070312 12.351562 14.050781 12.332031 14.039062 12.296875 C 14.027344 12.257812 14.019531 12.191406 14.019531 12.097656 C 14.019531 12 14.027344 11.929688 14.039062 11.894531 C 14.050781 11.859375 14.070312 11.839844 14.101562 11.839844 C 14.128906 11.839844 14.148438 11.859375 14.160156 11.898438 C 14.171875 11.933594 14.179688 12 14.179688 12.097656 C 14.179688 12.191406 14.171875 12.257812 14.160156 12.292969 Z M 14.160156 12.292969 "/>
<path style=" stroke:none;fill-rule:nonzero;fill:rgb(0%,0%,0%);fill-opacity:1;" d="M 9.890625 13.492188 C 9.785156 13.492188 9.707031 13.527344 9.65625 13.597656 C 9.605469 13.667969 9.582031 13.78125 9.582031 13.933594 C 9.582031 14.078125 9.605469 14.1875 9.660156 14.261719 C 9.710938 14.335938 9.789062 14.371094 9.890625 14.371094 C 9.996094 14.371094 10.070312 14.335938 10.121094 14.265625 C 10.171875 14.195312 10.199219 14.085938 10.199219 13.933594 C 10.199219 13.789062 10.171875 13.675781 10.121094 13.601562 C 10.070312 13.53125 9.992188 13.492188 9.890625 13.492188 Z M 9.949219 14.132812 C 9.9375 14.167969 9.917969 14.1875 9.890625 14.1875 C 9.863281 14.1875 9.839844 14.167969 9.828125 14.132812 C 9.816406 14.097656 9.8125 14.03125 9.8125 13.933594 C 9.8125 13.835938 9.816406 13.769531 9.828125 13.730469 C 9.839844 13.695312 9.863281 13.675781 9.890625 13.675781 C 9.917969 13.675781 9.9375 13.695312 9.949219 13.734375 C 9.964844 13.773438 9.96875 13.839844 9.96875 13.933594 C 9.96875 14.027344 9.964844 14.09375 9.949219 14.132812 Z M 9.949219 14.132812 "/>
<path style=" stroke:none;fill-rule:nonzero;fill:rgb(0%,0%,0%);fill-opacity:1;" d="M 10.289062 13.742188 L 10.410156 13.890625 L 10.507812 13.8125 C 10.527344 13.792969 10.546875 13.773438 10.5625 13.757812 C 10.558594 13.800781 10.558594 13.851562 10.558594 13.90625 L 10.558594 14.359375 L 10.792969 14.359375 L 10.792969 13.503906 L 10.582031 13.503906 Z M 10.289062 13.742188 "/>
<path style=" stroke:none;fill-rule:nonzero;fill:rgb(0%,0%,0%);fill-opacity:1;" d="M 10.992188 13.742188 L 11.113281 13.890625 L 11.207031 13.8125 C 11.230469 13.792969 11.246094 13.773438 11.261719 13.757812 C 11.261719 13.800781 11.257812 13.851562 11.257812 13.90625 L 11.257812 14.359375 L 11.492188 14.359375 L 11.492188 13.503906 L 11.285156 13.503906 Z M 10.992188 13.742188 "/>
<path style=" stroke:none;fill-rule:nonzero;fill:rgb(0%,0%,0%);fill-opacity:1;" d="M 11.691406 13.742188 L 11.8125 13.890625 L 11.910156 13.8125 C 11.929688 13.792969 11.949219 13.773438 11.964844 13.757812 C 11.960938 13.800781 11.960938 13.851562 11.960938 13.90625 L 11.960938 14.359375 L 12.195312 14.359375 L 12.195312 13.503906 L 11.988281 13.503906 Z M 11.691406 13.742188 "/>
<path style=" stroke:none;fill-rule:nonzero;fill:rgb(0%,0%,0%);fill-opacity:1;" d="M 12.695312 13.492188 C 12.59375 13.492188 12.515625 13.527344 12.464844 13.597656 C 12.414062 13.667969 12.386719 13.78125 12.386719 13.933594 C 12.386719 14.078125 12.414062 14.1875 12.464844 14.261719 C 12.515625 14.335938 12.59375 14.371094 12.695312 14.371094 C 12.800781 14.371094 12.878906 14.335938 12.929688 14.265625 C 12.980469 14.195312 13.003906 14.085938 13.003906 13.933594 C 13.003906 13.789062 12.980469 13.675781 12.925781 13.601562 C 12.875 13.53125 12.796875 13.492188 12.695312 13.492188 Z M 12.757812 14.132812 C 12.746094 14.167969 12.726562 14.1875 12.695312 14.1875 C 12.667969 14.1875 12.648438 14.167969 12.636719 14.132812 C 12.625 14.097656 12.617188 14.03125 12.617188 13.933594 C 12.617188 13.835938 12.625 13.769531 12.636719 13.730469 C 12.648438 13.695312 12.667969 13.675781 12.695312 13.675781 C 12.726562 13.675781 12.746094 13.695312 12.757812 13.734375 C 12.769531 13.773438 12.777344 13.839844 12.777344 13.933594 C 12.777344 14.027344 12.769531 14.09375 12.757812 14.132812 Z M 12.757812 14.132812 "/>
</g>
</svg>
